<svg width="1322" height="701" viewBox="0 0 1322 701" fill="none" xmlns="http://www.w3.org/2000/svg">
<g style="mix-blend-mode:difference">
<path d="M0 558V700.38H142.38L0 558Z" fill="#2E417B"/>
<path d="M1223 0C1223 55.2277 1267.32 100 1322 100V0H1223Z" fill="#2E417B"/>
<path d="M1145.01 564C1146.67 564 1148.01 562.657 1148.01 561C1148.01 559.343 1146.67 558 1145.01 558C1143.35 558 1142.01 559.343 1142.01 561C1142.01 562.657 1143.35 564 1145.01 564Z" fill="#2E417B"/>
<path d="M1164.58 564C1166.24 564 1167.58 562.657 1167.58 561C1167.58 559.343 1166.24 558 1164.58 558C1162.92 558 1161.58 559.343 1161.58 561C1161.58 562.657 1162.92 564 1164.58 564Z" fill="#2E417B"/>
<path d="M1187.16 561C1187.16 559.34 1185.82 558 1184.16 558C1182.5 558 1181.16 559.34 1181.16 561C1181.16 562.66 1182.5 564 1184.16 564C1185.82 564 1187.16 562.66 1187.16 561Z" fill="#2E417B"/>
<path d="M1206.73 561C1206.73 559.34 1205.39 558 1203.73 558C1202.07 558 1200.73 559.34 1200.73 561C1200.73 562.66 1202.07 564 1203.73 564C1205.39 564 1206.73 562.66 1206.73 561Z" fill="#2E417B"/>
<path d="M1226.31 561C1226.31 559.34 1224.97 558 1223.31 558C1221.65 558 1220.31 559.34 1220.31 561C1220.31 562.66 1221.65 564 1223.31 564C1224.97 564 1226.31 562.66 1226.31 561Z" fill="#2E417B"/>
<path d="M1148 583.62C1148 581.96 1146.66 580.62 1145 580.62C1143.34 580.62 1142 581.96 1142 583.62C1142 585.28 1143.34 586.62 1145 586.62C1146.66 586.62 1148 585.28 1148 583.62Z" fill="#2E417B"/>
<path d="M1167.58 583.62C1167.58 581.96 1166.24 580.62 1164.58 580.62C1162.92 580.62 1161.58 581.96 1161.58 583.62C1161.58 585.28 1162.92 586.62 1164.58 586.62C1166.24 586.62 1167.58 585.28 1167.58 583.62Z" fill="#2E417B"/>
<path d="M1187.16 583.62C1187.16 581.96 1185.82 580.62 1184.16 580.62C1182.5 580.62 1181.16 581.96 1181.16 583.62C1181.16 585.28 1182.5 586.62 1184.16 586.62C1185.82 586.62 1187.16 585.28 1187.16 583.62Z" fill="#2E417B"/>
<path d="M1206.73 583.62C1206.73 581.96 1205.39 580.62 1203.73 580.62C1202.07 580.62 1200.73 581.96 1200.73 583.62C1200.73 585.28 1202.07 586.62 1203.73 586.62C1205.39 586.62 1206.73 585.28 1206.73 583.62Z" fill="#2E417B"/>
<path d="M1226.31 583.62C1226.31 581.96 1224.97 580.62 1223.31 580.62C1221.65 580.62 1220.31 581.96 1220.31 583.62C1220.31 585.28 1221.65 586.62 1223.31 586.62C1224.97 586.62 1226.31 585.28 1226.31 583.62Z" fill="#2E417B"/>
<path d="M1145.01 609.25C1146.67 609.25 1148.01 607.907 1148.01 606.25C1148.01 604.593 1146.67 603.25 1145.01 603.25C1143.35 603.25 1142.01 604.593 1142.01 606.25C1142.01 607.907 1143.35 609.25 1145.01 609.25Z" fill="#2E417B"/>
<path d="M1164.58 609.25C1166.24 609.25 1167.58 607.907 1167.58 606.25C1167.58 604.593 1166.24 603.25 1164.58 603.25C1162.92 603.25 1161.58 604.593 1161.58 606.25C1161.58 607.907 1162.92 609.25 1164.58 609.25Z" fill="#2E417B"/>
<path d="M1187.16 606.25C1187.16 604.59 1185.82 603.25 1184.16 603.25C1182.5 603.25 1181.16 604.59 1181.16 606.25C1181.16 607.91 1182.5 609.25 1184.16 609.25C1185.82 609.25 1187.16 607.91 1187.16 606.25Z" fill="#2E417B"/>
<path d="M1206.73 606.25C1206.73 604.59 1205.39 603.25 1203.73 603.25C1202.07 603.25 1200.73 604.59 1200.73 606.25C1200.73 607.91 1202.07 609.25 1203.73 609.25C1205.39 609.25 1206.73 607.91 1206.73 606.25Z" fill="#2E417B"/>
<path d="M1220.32 606.25C1220.32 607.91 1221.66 609.25 1223.32 609.25C1224.98 609.25 1226.32 607.91 1226.32 606.25C1226.32 604.59 1224.98 603.25 1223.32 603.25C1221.66 603.25 1220.32 604.59 1220.32 606.25Z" fill="#2E417B"/>
<path d="M-4.3555e-06 108.358C22.9156 108.358 41.4938 126.779 41.4938 149.5C41.4938 172.221 22.9157 190.635 -7.59043e-07 190.635L0 208C32.5845 208 59 181.808 59 149.5C59 117.192 32.5845 91 -5.11423e-06 91L-4.3555e-06 108.358Z" fill="#F5945C"/>
</g>
</svg>
