<svg width="61" height="60" viewBox="0 0 61 60" fill="none" xmlns="http://www.w3.org/2000/svg">
<g clip-path="url(#clip0_172_9440)">
<path d="M29.1569 60H32.0466C48.1813 59.3331 60.7963 46.1809 60.7963 30.0093C60.7963 13.8376 48.1627 0.685397 32.0281 0H29.1754C29.1754 0 29.1754 0 29.1569 0C13.189 0.870639 0.722168 14.0043 0.722168 30.0093C0.722168 46.0142 13.189 59.1479 29.1569 60ZM11.0216 49.4227C12.9296 48.0333 14.9858 46.8478 17.1717 45.8845C19.2279 50.2007 22.0991 54.0167 25.7299 57.2399C20.1911 56.2025 15.0229 53.4795 11.0402 49.4227H11.0216ZM29.6015 57.4437C25.2112 54.1463 21.6731 49.8672 19.3205 45.0324C22.6178 43.8283 26.0633 43.1429 29.6015 42.9948V57.4437ZM29.6015 40.6607C25.7484 40.8274 21.9695 41.5684 18.3758 42.9021C17.005 39.4937 16.2084 35.8814 15.9861 32.1581H29.6015V40.6607ZM29.6015 29.824H15.912C15.912 26.0266 16.5604 22.2847 17.783 18.728C21.5619 20.2099 25.5261 21.0621 29.6015 21.2288V29.824ZM35.4181 57.314C39.197 53.9611 42.1609 49.9784 44.2541 45.477C46.5882 46.4217 48.8111 47.6258 50.8673 49.0707C46.7364 53.4424 41.3088 56.3322 35.4181 57.3325V57.314ZM52.4048 47.2924C50.1634 45.6993 47.7182 44.3655 45.1618 43.3282C46.5326 39.7715 47.3477 36.0111 47.5514 32.1396H58.3881C57.9621 37.6968 55.9059 42.9392 52.4048 47.3109V47.2924ZM53.2754 13.8561C56.6468 18.5428 58.4437 24.0445 58.4807 29.8055H47.6255C47.607 25.8598 46.9587 21.9697 45.7175 18.2649C48.385 17.1164 50.9228 15.6345 53.2569 13.8561H53.2754ZM51.8491 12.0222C49.7002 13.6338 47.3847 15.0046 44.9395 16.079C42.8648 10.9849 39.6045 6.39086 35.4366 2.68601C41.8274 3.76042 47.607 7.03921 51.8491 12.0222ZM31.917 2.81568C36.7518 6.53906 40.4937 11.3924 42.7537 16.9312C39.2711 18.1723 35.6404 18.8577 31.917 18.9318V2.81568ZM31.917 21.2473C35.8997 21.1732 39.8083 20.4508 43.5502 19.0985C44.6802 22.544 45.273 26.1377 45.2915 29.8055H31.917V21.2473ZM31.917 32.1396H45.2174C44.9951 35.7333 44.2541 39.2158 42.9574 42.5131C39.4008 41.3276 35.6959 40.6977 31.917 40.6237V32.1396ZM31.917 42.9392C35.381 43.0133 38.7895 43.5875 42.0497 44.6619C39.7713 49.5153 36.2702 53.8314 31.917 57.1843V42.9392ZM29.6015 2.57487V18.8947C25.8225 18.728 22.1362 17.9315 18.6166 16.5421C20.9506 11.0404 24.7296 6.22414 29.6015 2.57487ZM25.7114 2.76011C21.7101 6.33529 18.5425 10.7441 16.4863 15.6159C14.2078 14.523 12.0405 13.1893 10.0399 11.6147C14.1522 6.98364 19.6725 3.89009 25.7114 2.76011ZM8.57644 13.4301C10.7623 15.1528 13.1334 16.6162 15.6342 17.8018C14.2819 21.6548 13.5965 25.6931 13.578 29.8425H3.0377C3.07475 23.8777 4.98274 18.2278 8.55792 13.4486L8.57644 13.4301ZM3.14884 32.1581H13.6706C13.8929 36.1778 14.7635 40.0864 16.2455 43.7542C13.8373 44.8101 11.5588 46.1439 9.46561 47.6814C5.76076 43.2356 3.59342 37.8821 3.14884 32.1581Z" fill="#272525"/>
</g>
<defs>
<clipPath id="clip0_172_9440">
<rect width="60.0556" height="60" fill="white" transform="translate(0.722168)"/>
</clipPath>
</defs>
</svg>
